<?xml version="1.0" encoding="UTF-8" standalone="no"?>
<!DOCTYPE svg PUBLIC "-//W3C//DTD SVG 20010904//EN" "http://www.w3.org/TR/2001/REC-SVG-20010904/DTD/svg10.dtd">
<svg version="1.0" xmlns="http://www.w3.org/2000/svg" width="140.000000pt" height="140.000000pt" viewBox="0 0 140.000000 140.000000" preserveAspectRatio="xMidYMid meet">
<metadata>
Created by potrace 1.10, written by Peter Selinger 2001-2011
</metadata>
<g transform="translate(0.000000,140.000000) scale(0.100000,-0.100000)" fill="#b1b1b1" stroke="none">
<path d="M630 1307 c-70 -22 -130 -111 -130 -191 0 -15 6 -42 14 -61 15 -35 177 -275 186 -274 14 0 180 261 190 298 39 146 -109 276 -260 228z m131 -116 c53 -53 35 -138 -35 -161 -41 -13 -98 6 -115 38 -35 66 12 152 84 152 27 0 44 -8 66 -29z"/>
<path d="M213 743 l-153 -126 0 -264 0 -264 23 18 c13 10 82 67 155 127 l132 108 0 264 c0 145 -1 264 -2 264 -2 -1 -72 -58 -155 -127z"/>
<path d="M1020 611 l0 -261 143 -117 c78 -65 150 -124 160 -132 16 -13 17 1 17 250 l0 264 -152 125 c-84 69 -156 127 -160 128 -4 2 -8 -114 -8 -257z"/>
<path d="M380 603 l0 -258 155 -128 155 -127 -2 267 -3 267 -143 118 c-79 65 -147 118 -153 118 -5 0 -9 -102 -9 -257z"/>
<path d="M853 742 l-142 -117 -1 -262 c0 -145 2 -263 5 -263 3 0 71 54 150 120 l145 121 0 259 c0 143 -3 260 -7 259 -5 0 -72 -53 -150 -117z"/>
</g>
</svg>